<svg width="4419" height="4419" viewBox="0 0 4419 4419" fill="none" xmlns="http://www.w3.org/2000/svg">
<g clip-path="url(#clip0_2_26)">
<mask id="mask0_2_26" style="mask-type:luminance" maskUnits="userSpaceOnUse" x="0" y="0" width="4419" height="4419">
<path d="M4419 0H0V4419H4419V0Z" fill="white"/>
</mask>
<g mask="url(#mask0_2_26)">
<mask id="mask1_2_26" style="mask-type:luminance" maskUnits="userSpaceOnUse" x="0" y="0" width="4419" height="4419">
<path d="M4419 0H0V4419H4419V0Z" fill="white"/>
</mask>
<g mask="url(#mask1_2_26)">
<path d="M1603.21 1490.09C1534.28 1460.04 1494.51 1386.68 1493.62 1292.12C1493.62 1214.34 1506 1180.76 1553.72 1138.33C1597.91 1097.68 1648.29 1083.54 1725.18 1088.84C1798.53 1094.14 1843.61 1117.12 1878.08 1165.73C1903.71 1201.97 1904.59 1207.27 1904.59 1294.77C1904.59 1382.26 1903.71 1387.57 1878.08 1424.69C1838.3 1481.25 1789.69 1502.46 1701.31 1502.46C1662.43 1501.58 1618.24 1496.27 1603.21 1490.09Z" fill="#FFA800"/>
<path d="M998.694 4413.7C986.321 4411.93 946.55 4405.74 910.314 4399.56C775.093 4379.23 620.428 4317.36 490.509 4232.52C403.897 4175.07 247.464 4020.41 192.668 3937.33C113.126 3816.25 58.3307 3686.33 20.3273 3526.36C5.30274 3464.5 4.41895 3379.65 4.41895 2205.08V950.085L32.7005 842.262C84.8447 638.988 179.411 474.601 327.006 327.006C487.858 165.271 669.92 67.1688 894.406 19.4436C962.458 5.30285 1065.86 4.41905 2213.92 4.41905C3590.88 4.41905 3491.89 0.883861 3668.65 60.9822C3834.81 116.662 3968.26 200.623 4096.41 330.541C4255.5 490.509 4352.71 670.804 4399.56 894.406C4413.7 962.458 4414.58 1065.86 4414.58 2218.34V3468.92L4394.25 3548.46C4335.04 3782.66 4251.08 3933.79 4092.88 4092.88C3932.91 4251.96 3765.87 4342.99 3535.2 4398.67C3473.33 4412.81 3384.95 4414.58 2244.85 4415.46C1571.4 4416.35 1011.07 4415.46 998.694 4413.7ZM1511.3 3299.23C1622.66 3274.48 1716.34 3217.03 1767.6 3141.03C1821.51 3063.25 1864.82 2897.98 1864.82 2768.95C1864.82 2743.32 1866.59 2722.1 1869.24 2722.1C1871.89 2722.1 1889.56 2730.06 1909.01 2739.78C2062.79 2818.44 2301.42 2833.46 2471.1 2775.13C2631.07 2720.34 2727.41 2636.38 2798.99 2491.43C2836.11 2415.43 2854.67 2327.05 2854.67 2222.76C2854.67 2050.42 2800.76 1906.36 2696.47 1802.07C2650.52 1756.11 2619.58 1734.9 2554.18 1703.97C2438.4 1648.29 2373.89 1634.15 2233.36 1634.15C2102.56 1634.15 2023.9 1650.05 1924.03 1696.01L1864.82 1722.53V1687.17V1652.71L1703.97 1654.47L1542.23 1657.13L1537.81 2289.04L1533.39 2920.96L1510.41 2970.45C1490.09 3012.87 1480.36 3023.48 1439.71 3042.92C1414.08 3056.18 1383.15 3066.79 1370.77 3066.79C1357.52 3066.79 1338.96 3069.44 1328.35 3072.09C1308.91 3077.39 1308.02 3080.93 1308.02 3201.12V3324.86L1381.38 3318.67C1421.15 3315.13 1479.48 3306.3 1511.3 3299.23ZM1785.28 1456.5C1899.29 1399.06 1916.08 1229.37 1816.21 1152.48C1776.44 1122.43 1703.97 1108.29 1654.47 1121.54C1609.4 1133.92 1549.3 1186.06 1531.63 1225.83C1497.16 1308.91 1545.77 1427.34 1629.73 1463.57C1673.03 1482.13 1740.2 1478.6 1785.28 1456.5Z" fill="#0C0C0C"/>
<path d="M1281.51 3202.01C1281.51 3052.65 1281.51 3050.88 1301.84 3045.58C1312.44 3042.92 1331 3040.27 1344.26 3040.27C1356.63 3040.27 1387.57 3029.67 1413.2 3016.41C1453.85 2996.97 1463.57 2986.36 1483.9 2943.94L1506.88 2894.45L1511.3 2262.53L1515.72 1630.61L1703.97 1627.96L1891.33 1626.19V1647.4V1668.61L1966.45 1642.1C2093.72 1598.79 2331.46 1592.61 2465.8 1629.73C2675.26 1688.06 2826.39 1845.37 2867.93 2048.65C2885.61 2132.61 2885.61 2312.9 2867.93 2395.1C2843.18 2510.88 2764.53 2641.68 2680.57 2706.2C2549.76 2805.18 2406.59 2842.3 2185.64 2835.23C2069.86 2830.81 2046 2827.28 1975.29 2803.41C1931.99 2788.39 1895.75 2776.9 1895.75 2777.78C1894.87 2778.67 1889.56 2825.51 1883.38 2881.19C1849.79 3199.36 1711.92 3325.74 1378.73 3346.07L1281.51 3352.25V3202.01ZM2317.32 2509.99C2363.28 2496.74 2420.73 2450.78 2455.2 2400.4C2535.62 2280.2 2525.02 2111.4 2429.57 2002.69C2291.69 1845.37 2057.49 1895.75 1978.83 2100.79C1934.64 2216.57 1964.69 2361.51 2051.3 2448.13C2122.89 2519.71 2213.04 2540.04 2317.32 2509.99Z" fill="#FFA800"/>
<path d="M2118.47 2534.74C2047.76 2510.88 1990.32 2451.66 1957.62 2371.24C1935.52 2319.09 1932.87 2299.65 1932.87 2218.34C1931.99 2142.33 1936.41 2115.82 1952.31 2074.28C1979.71 2004.46 2018.6 1956.73 2079.58 1919.61C2125.54 1891.33 2138.8 1887.8 2205.96 1884.26C2321.74 1878.08 2393.33 1904.59 2456.08 1976.18C2588.65 2126.42 2557.72 2411.89 2398.63 2510.88C2326.16 2555.07 2206.85 2565.67 2118.47 2534.74Z" fill="#0C0C0C"/>
</g>
</g>
</g>
<defs>
<clipPath id="clip0_2_26">
<rect width="4419" height="4419" fill="white"/>
</clipPath>
</defs>
</svg>
