<svg width="500" height="500" viewBox="0 0 500 500" fill="none" xmlns="http://www.w3.org/2000/svg">
<rect width="500" height="500" rx="100" fill="#0C0C0C"/>
<g clip-path="url(#clip0_132_6)">
<path d="M183.45 367.9C175.71 367.799 169.357 366.941 164.39 365.328C159.335 363.8 155.571 362.246 153.098 360.665L165.475 331.671C166.836 332.807 168.288 333.6 169.83 334.05C171.371 334.586 173.131 334.867 175.109 334.893C177.43 334.923 179.374 334.304 180.938 333.034C182.589 331.765 183.818 329.846 184.626 327.277C185.518 324.794 185.989 321.704 186.037 318.006L187.512 205.27L226.724 205.783L225.169 324.711C225.062 332.88 223.547 340.257 220.622 346.841C217.698 353.425 213.201 358.613 207.131 362.404C201.06 366.195 193.167 368.027 183.45 367.9ZM207.661 183.731C201.642 183.652 196.467 181.434 192.138 177.077C187.895 172.635 185.814 167.405 185.892 161.385C185.945 157.343 186.982 153.659 189.004 150.331C191.026 147.003 193.727 144.329 197.108 142.309C200.488 140.289 204.2 139.306 208.241 139.358C212.369 139.412 216.096 140.493 219.423 142.601C222.751 144.623 225.382 147.323 227.316 150.703C229.336 154.084 230.319 157.838 230.265 161.965C230.186 167.985 227.925 173.159 223.482 177.487C219.126 181.73 213.852 183.812 207.661 183.731ZM257.173 315.195C245.564 315.044 235.276 312.544 226.309 307.696C217.428 302.764 210.463 296.093 205.413 287.684C200.449 279.191 198.038 269.526 198.18 258.691C198.322 247.856 200.985 238.258 206.168 229.897C211.439 221.451 218.578 214.836 227.586 210.051C236.679 205.268 247.03 202.952 258.639 203.104C270.248 203.256 280.449 205.84 289.242 210.858C298.035 215.875 304.87 222.673 309.746 231.252C314.624 239.744 316.992 249.408 316.85 260.243C316.708 271.078 314.088 280.677 308.991 289.039C303.894 297.315 296.886 303.803 287.965 308.502C279.046 313.116 268.782 315.347 257.173 315.195ZM257.595 282.948C262.067 283.007 265.949 282.068 269.243 280.133C272.536 278.198 275.11 275.437 276.963 271.848C278.816 268.26 279.772 264.188 279.832 259.63C279.893 254.986 279.044 250.847 277.285 247.212C275.526 243.576 273.027 240.705 269.786 238.599C266.545 236.492 262.689 235.41 258.217 235.351C253.746 235.293 249.82 236.273 246.439 238.293C243.144 240.315 240.527 243.119 238.588 246.706C236.735 250.294 235.778 254.409 235.718 259.053C235.658 263.611 236.507 267.707 238.266 271.342C240.111 274.979 242.654 277.807 245.896 279.828C249.224 281.85 253.123 282.89 257.595 282.948Z" fill="#FF9000"/>
</g>
<defs>
<clipPath id="clip0_132_6">
<rect width="154" height="243.015" fill="white" transform="translate(174.282 127.69) rotate(0.602325)"/>
</clipPath>
</defs>
</svg>
