<svg width="684" height="684" viewBox="0 0 684 684" fill="none" xmlns="http://www.w3.org/2000/svg">
<rect width="684" height="684" rx="100" fill="#6402B1"/>
<path d="M257.578 495.7C247.528 495.7 239.264 494.695 232.787 492.685C226.199 490.787 221.286 488.833 218.047 486.823L233.625 448.968C235.412 450.419 237.31 451.424 239.32 451.983C241.33 452.653 243.619 452.988 246.188 452.988C249.203 452.988 251.715 452.15 253.725 450.475C255.847 448.8 257.41 446.288 258.415 442.938C259.532 439.699 260.09 435.679 260.09 430.878V284.482H311.01V438.918C311.01 449.526 309.168 459.129 305.483 467.728C301.798 476.326 296.047 483.138 288.23 488.163C280.413 493.188 270.196 495.7 257.578 495.7ZM285.885 256.175C278.068 256.175 271.313 253.383 265.618 247.8C260.034 242.105 257.243 235.349 257.243 227.532C257.243 222.284 258.527 217.482 261.095 213.127C263.663 208.772 267.125 205.255 271.48 202.575C275.835 199.895 280.637 198.555 285.885 198.555C291.245 198.555 296.103 199.895 300.458 202.575C304.813 205.143 308.274 208.605 310.843 212.96C313.523 217.315 314.863 222.172 314.863 227.532C314.863 235.349 312.015 242.105 306.32 247.8C300.737 253.383 293.925 256.175 285.885 256.175ZM352.401 426.02C337.326 426.02 323.926 422.949 312.201 416.807C300.587 410.554 291.431 402.012 284.731 391.18C278.142 380.237 274.848 367.73 274.848 353.66C274.848 339.59 278.142 327.083 284.731 316.14C291.431 305.085 300.587 296.375 312.201 290.01C323.926 283.645 337.326 280.462 352.401 280.462C367.476 280.462 380.764 283.645 392.266 290.01C403.767 296.375 412.757 305.085 419.233 316.14C425.71 327.083 428.948 339.59 428.948 353.66C428.948 367.73 425.71 380.237 419.233 391.18C412.757 402.012 403.767 410.554 392.266 416.807C380.764 422.949 367.476 426.02 352.401 426.02ZM352.401 384.145C358.207 384.145 363.232 382.861 367.476 380.292C371.719 377.724 375.013 374.095 377.358 369.405C379.703 364.715 380.876 359.411 380.876 353.492C380.876 347.462 379.703 342.102 377.358 337.413C375.013 332.722 371.719 329.037 367.476 326.357C363.232 323.677 358.207 322.337 352.401 322.337C346.594 322.337 341.513 323.677 337.158 326.357C332.915 329.037 329.565 332.722 327.108 337.413C324.763 342.102 323.591 347.462 323.591 353.492C323.591 359.411 324.763 364.715 327.108 369.405C329.565 374.095 332.915 377.724 337.158 380.292C341.513 382.861 346.594 384.145 352.401 384.145Z" fill="white"/>
</svg>
