<svg width="190" height="267" viewBox="0 0 190 267" fill="none" xmlns="http://www.w3.org/2000/svg">
<path d="M35.95 267C26.95 267 19.55 266.1 13.75 264.3C7.85 262.6 3.45 260.85 0.549999 259.05L14.5 225.15C16.1 226.45 17.8 227.35 19.6 227.85C21.4 228.45 23.45 228.75 25.75 228.75C28.45 228.75 30.7 228 32.5 226.5C34.4 225 35.8 222.75 36.7 219.75C37.7 216.85 38.2 213.25 38.2 208.95V77.85H83.8V216.15C83.8 225.65 82.15 234.25 78.85 241.95C75.55 249.65 70.4 255.75 63.4 260.25C56.4 264.75 47.25 267 35.95 267ZM61.3 52.5C54.3 52.5 48.25 50 43.15 45C38.15 39.9 35.65 33.85 35.65 26.85C35.65 22.15 36.8 17.85 39.1 13.95C41.4 10.05 44.5 6.9 48.4 4.49999C52.3 2.09999 56.6 0.899983 61.3 0.899983C66.1 0.899983 70.45 2.09999 74.35 4.49999C78.25 6.79999 81.35 9.89999 83.65 13.8C86.05 17.7 87.25 22.05 87.25 26.85C87.25 33.85 84.7 39.9 79.6 45C74.6 50 68.5 52.5 61.3 52.5ZM120.866 204.6C107.366 204.6 95.3664 201.85 84.8664 196.35C74.4664 190.75 66.2664 183.1 60.2664 173.4C54.3664 163.6 51.4164 152.4 51.4164 139.8C51.4164 127.2 54.3664 116 60.2664 106.2C66.2664 96.3 74.4664 88.5 84.8664 82.8C95.3664 77.1 107.366 74.25 120.866 74.25C134.366 74.25 146.266 77.1 156.566 82.8C166.866 88.5 174.916 96.3 180.716 106.2C186.516 116 189.416 127.2 189.416 139.8C189.416 152.4 186.516 163.6 180.716 173.4C174.916 183.1 166.866 190.75 156.566 196.35C146.266 201.85 134.366 204.6 120.866 204.6ZM120.866 167.1C126.066 167.1 130.566 165.95 134.366 163.65C138.166 161.35 141.116 158.1 143.216 153.9C145.316 149.7 146.366 144.95 146.366 139.65C146.366 134.25 145.316 129.45 143.216 125.25C141.116 121.05 138.166 117.75 134.366 115.35C130.566 112.95 126.066 111.75 120.866 111.75C115.666 111.75 111.116 112.95 107.216 115.35C103.416 117.75 100.416 121.05 98.2164 125.25C96.1164 129.45 95.0664 134.25 95.0664 139.65C95.0664 144.95 96.1164 149.7 98.2164 153.9C100.416 158.1 103.416 161.35 107.216 163.65C111.116 165.95 115.666 167.1 120.866 167.1Z" fill="white"/>
</svg>
