<svg width="684" height="684" viewBox="0 0 684 684" fill="none" xmlns="http://www.w3.org/2000/svg">
<rect width="684" height="684" rx="342" fill="#6402B1"/>
<path d="M265.95 480C256.95 480 249.55 479.1 243.75 477.3C237.85 475.6 233.45 473.85 230.55 472.05L244.5 438.15C246.1 439.45 247.8 440.35 249.6 440.85C251.4 441.45 253.45 441.75 255.75 441.75C258.45 441.75 260.7 441 262.5 439.5C264.4 438 265.8 435.75 266.7 432.75C267.7 429.85 268.2 426.25 268.2 421.95V290.85H313.8V429.15C313.8 438.65 312.15 447.25 308.85 454.95C305.55 462.65 300.4 468.75 293.4 473.25C286.4 477.75 277.25 480 265.95 480ZM291.3 265.5C284.3 265.5 278.25 263 273.15 258C268.15 252.9 265.65 246.85 265.65 239.85C265.65 235.15 266.8 230.85 269.1 226.95C271.4 223.05 274.5 219.9 278.4 217.5C282.3 215.1 286.6 213.9 291.3 213.9C296.1 213.9 300.45 215.1 304.35 217.5C308.25 219.8 311.35 222.9 313.65 226.8C316.05 230.7 317.25 235.05 317.25 239.85C317.25 246.85 314.7 252.9 309.6 258C304.6 263 298.5 265.5 291.3 265.5ZM350.866 417.6C337.366 417.6 325.366 414.85 314.866 409.35C304.466 403.75 296.266 396.1 290.266 386.4C284.366 376.6 281.416 365.4 281.416 352.8C281.416 340.2 284.366 329 290.266 319.2C296.266 309.3 304.466 301.5 314.866 295.8C325.366 290.1 337.366 287.25 350.866 287.25C364.366 287.25 376.266 290.1 386.566 295.8C396.866 301.5 404.916 309.3 410.716 319.2C416.516 329 419.416 340.2 419.416 352.8C419.416 365.4 416.516 376.6 410.716 386.4C404.916 396.1 396.866 403.75 386.566 409.35C376.266 414.85 364.366 417.6 350.866 417.6ZM350.866 380.1C356.066 380.1 360.566 378.95 364.366 376.65C368.166 374.35 371.116 371.1 373.216 366.9C375.316 362.7 376.366 357.95 376.366 352.65C376.366 347.25 375.316 342.45 373.216 338.25C371.116 334.05 368.166 330.75 364.366 328.35C360.566 325.95 356.066 324.75 350.866 324.75C345.666 324.75 341.116 325.95 337.216 328.35C333.416 330.75 330.416 334.05 328.216 338.25C326.116 342.45 325.066 347.25 325.066 352.65C325.066 357.95 326.116 362.7 328.216 366.9C330.416 371.1 333.416 374.35 337.216 376.65C341.116 378.95 345.666 380.1 350.866 380.1Z" fill="white"/>
</svg>
